<?xml version="1.0" encoding="utf-8"?>
<!-- Generator: Adobe Illustrator 23.0.6, SVG Export Plug-In . SVG Version: 6.00 Build 0)  -->
<svg version="1.1" id="Capa_1" xmlns="http://www.w3.org/2000/svg" xmlns:xlink="http://www.w3.org/1999/xlink" x="0px" y="0px"
	 viewBox="0 0 25.4 25.4" style="enable-background:new 0 0 25.4 25.4;" xml:space="preserve">
<style type="text/css">
	.st0{fill:#FFFFFF;}
</style>
<g>
	<g>
		<ellipse class="st0" cx="6.3" cy="13.2" rx="1.8" ry="1.7"/>
		<path class="st0" d="M12.6,12.5c0,0.9-0.8,1.7-1.8,1.7c-1,0-1.8-0.8-1.8-1.7c0-0.9,0.8-1.7,1.8-1.7C11.8,10.8,12.6,11.6,12.6,12.5
			z"/>
		<path class="st0" d="M17,12c0,0.9-0.8,1.7-1.8,1.7c-1,0-1.8-0.8-1.8-1.7c0-0.9,0.8-1.7,1.8-1.7C16.2,10.3,17,11.1,17,12z"/>
		<path class="st0" d="M21.3,11.5c0,0.9-0.8,1.7-1.8,1.7c-1,0-1.8-0.8-1.8-1.7s0.8-1.7,1.8-1.7C20.5,9.9,21.3,10.6,21.3,11.5z"/>
		<ellipse class="st0" cx="23.6" cy="10.3" rx="1.8" ry="1.7"/>
		<ellipse class="st0" cx="23.1" cy="6" rx="1.8" ry="1.7"/>
		<path class="st0" d="M21.3,3.8c0,0.9-0.8,1.7-1.8,1.7c-1,0-1.8-0.8-1.8-1.7c0-0.9,0.8-1.7,1.8-1.7C20.5,2.2,21.3,2.9,21.3,3.8z"/>
		<ellipse class="st0" cx="15.2" cy="3.2" rx="1.8" ry="1.7"/>
		<path class="st0" d="M12.8,3.5c0,0.9-0.8,1.7-1.8,1.7c-1,0-1.8-0.8-1.8-1.7c0-0.9,0.8-1.7,1.8-1.7C12,1.8,12.8,2.6,12.8,3.5z"/>
		<ellipse class="st0" cx="6.3" cy="4.9" rx="1.8" ry="1.7"/>
		<path class="st0" d="M4.5,7.7c0,0.9-0.8,1.7-1.8,1.7C1.8,9.3,1,8.6,1,7.7S1.8,6,2.7,6C3.7,6,4.5,6.7,4.5,7.7z"/>
		<path class="st0" d="M3.6,12c0,0.9-0.8,1.7-1.8,1.7c-1,0-1.8-0.8-1.8-1.7c0-0.9,0.8-1.7,1.8-1.7C2.8,10.3,3.6,11.1,3.6,12z"/>
		<path class="st0" d="M3.6,15.9c0,0.9-0.8,1.7-1.8,1.7c-1,0-1.8-0.8-1.8-1.7c0-0.9,0.8-1.7,1.8-1.7C2.8,14.2,3.6,14.9,3.6,15.9z"/>
		<path class="st0" d="M4.8,19.7c0,0.9-0.8,1.7-1.8,1.7c-1,0-1.8-0.8-1.8-1.7C1.2,18.8,2,18,3,18C4,18,4.8,18.8,4.8,19.7z"/>
		<ellipse class="st0" cx="6.7" cy="22.2" rx="1.8" ry="1.7"/>
		<path class="st0" d="M12.6,22.2c0,0.9-0.8,1.7-1.8,1.7c-1,0-1.8-0.8-1.8-1.7c0-0.9,0.8-1.7,1.8-1.7C11.8,20.5,12.6,21.3,12.6,22.2
			z"/>
		<ellipse class="st0" cx="15.2" cy="21.9" rx="1.8" ry="1.7"/>
		<path class="st0" d="M21.3,20.5c0,0.9-0.8,1.7-1.8,1.7c-1,0-1.8-0.8-1.8-1.7c0-0.9,0.8-1.7,1.8-1.7C20.5,18.9,21.3,19.6,21.3,20.5
			z"/>
		<ellipse class="st0" cx="22.6" cy="17.2" rx="1.8" ry="1.7"/>
	</g>
</g>
</svg>
