<?xml version="1.0" encoding="utf-8"?>
<!-- Generator: Adobe Illustrator 23.0.6, SVG Export Plug-In . SVG Version: 6.00 Build 0)  -->
<svg version="1.1" xmlns="http://www.w3.org/2000/svg" xmlns:xlink="http://www.w3.org/1999/xlink" x="0px" y="0px"
	 viewBox="0 0 512 512" style="enable-background:new 0 0 512 512;" xml:space="preserve">
<style type="text/css">
	.st0{display:none;}
	.st1{display:inline;fill:#010202;}
	.st2{fill:#FFFFFF;}
</style>
<g id="Calque_3" class="st0">
	<rect class="st1" width="512" height="512"/>
</g>
<g id="Calque_1" class="st0">
	
		<image style="display:inline;overflow:visible;" width="860" height="966" xlink:href="BCA16AA7.jpg"  transform="matrix(0.5265 0 0 0.5265 28.2385 8.5899)">
	</image>
</g>
<g id="Calque_2">
	<path class="st2" d="M455.5,247.9c0-2.5,3.1-4.3,5.5-4.3s5.8,0.8,4.6,3.4c-1.2,2.6-3.5,7.9-3.5,10.9c0,2.9,0.6,13.8-2.8,13.8
		c-3.4,0-8.4-8.1-8.4-11.3C450.9,257.1,455.5,249.5,455.5,247.9z"/>
	<path class="st2" d="M461.8,318.1c-2.6-2.6-5.6-22.7-5.6-24.5s-0.8-1.5-2.5-1.5c-1.7,0-0.2,6.4-5.9,19.3
		c-5.7,12.9-14.4,16.8-14.4,16.8c-2.2,1.1-12.5-4.7-18.2-6.3c-5.7-1.6-12.3-13.3-13.2-15c-0.9-1.7,0-10,0-10.9s-0.1-1.8-1.8-2.4
		c-1.7-0.7-1.8-1.3-2.6-2.8s-1.4-9-1.4-10.9s2-2.5,3.8-1.9s1.3-1.7,0.6-4.1c-0.7-2.4,1.9-6.8,3.1-8c1.2-1.2,4.4-0.5,5-2.1
		c0.5-1.5,2.1-8.2,2.1-10.9s4.4-9,6.4-11c2-2-0.6-9.2-0.6-9.2s-2.8,0-6.4,0c-3.7,0-4.6-4.9-3.4-8.6c1.2-3.7,9.2-4.6,10.7-6.1
		c1.5-1.5,2.8-5.5-7.3-12.2s-8.6-18-8.6-27.8S429,160,430,159c1-1,0.5-5.3-0.6-6.4s-4-0.7-5.4-2.2c-1.4-1.4-1.4-3.2-0.8-6
		c0.6-2.8,5-3.6,8.7-7.3c3.7-3.7,11.4-3.4,13.6-4c2.3-0.6,1-3.8,0.2-4.6c-0.8-0.8-0.6-4.1,0.9-5.6c1.5-1.5,3.2-6.2,3.7-7.7
		c0.5-1.5-0.1-6.9-3-6.9c-2.9,0-14.7,14.3-15.6,15.1c-0.9,0.9-2.7-0.9-3.7-1.8c-1-1-8.8-1.1-10.6-0.5c-1.7,0.7-1.6,6.2-1.6,8.5
		c0,2.3,2.3,7.2,1.4,7.2c-0.9,0-3.7,2.9-4.8,5c-1.1,2.2-0.6,9.6-1.7,8.5s-4.5,1-5.5,1s-5.7,1.9-8.8,0.9c-3.1-1-4.5-4.9-5.5-5.8
		c-1-1-5.2-2.4-6.3-1.3c-1.1,1.1-12,1.5-13,0.6c-1-1-7.7-3-7.7-0.5s-6.1,14.8-13.6,13.5c-7.6-1.3-13.9-19.1-11.8-21.2
		c2.1-2.1-1-7.9-3-9.9c-1.9-1.9-5.8-0.6-7.6,1.1c-1.7,1.7-1.4,10.8-1.4,10.8s-4.8,0.2-6.2,1.6s-3.4,3.9-8.5,3.9c-5,0-5.7-1.8-8-4.1
		c-2.3-2.3-4.1,0-11.2,0s-6.9-6-9.4-10.8c-2.5-4.8-2.1-16.3,0.9-23.2s6.8-5.2,11.2-9.6c4.5-4.5,9.2-4.4,14.9-5.5
		c5.7-1.1,12.4,4.8,16.5,6.4c4.1,1.6,5-5.5,10.5-6.4c5.5-0.9,8.9,3.2,13.5,4.4c4.6,1.1,0.9-1.1,3.9-4.1s18.5,1,20.6-1.1
		s5-8.9,5-12.1s12.4-15.2,15.4-18.2s4.6-9.4,6-9.4c1.4,0,2.3-23.6,2.3-25.9c0-2.3-1.5-2.6-2.8-1.4c-1.3,1.3-7.7,10.2-14.2,16.7
		s-17.2,5.3-22.5,5.3c-5.3,0-5.8-6.8-11.2-1.4s-11,8.7-19.5,13.1s-20.4-6.2-22.2-6.2s-5.3,0.9-14.9,17.4
		c-9.6,16.5-30,22.5-34.4,20.4c-4.4-2.1-19.7-5.3-22.5-5.3s-13.5,5-13.5,10.1c0,5-10.8,26.8-10.8,26.8s-7.6,12.4-12.6,13.3
		c-5,0.9-13.5-3.2-20.4-5.7c-4.4-1.6,0.5-7.6,4.1-11.2c3.7-3.7,1.4-6.4-1.4-12.8c-2.8-6.4-11-0.5-16.5-6s-4.6-14.7-8.3-18.3
		c-3.7-3.7-3.2,4.6-14.2,15.6c-11,11-10.1,20.2-12.8,28c-2.8,7.8-8.3-5.5-19.3-2.3c-11,3.2,3.2,7.8,7.8,12.4s5,11.5,5,18.8
		s3,8.9,7.8,13.8c4.8,4.8,2.3,7.3-11,5c-13.3-2.3-6-5-10.1-0.9c-4.1,4.1-1.6,14-7.8,20.2c-6.2,6.2-18.8-3.7-28.4-3.7
		c-9.6,0-14.2-7.3-18.8-7.3s-3.3,2.9-2.5,6.5c0.8,3.7,4,7.2,4,10.1c0,2.9-8.7,14,0.2,14s19.4,2.9,21.8,7.9c2.4,5-7.9,16.9-11.4,17.9
		c-3.4,1-7.1,5.5-8.8,8.9s5.6,7.2,11,9.7c5.4,2.5,6,6.1,7.1,9.3c1.1,3.2-2.2,4.7-2.2,7.1s1.1,4.9,4.7,14.7
		c3.6,9.7-1.8,24.6-1.8,28.2s-7.6,8.8-11.1,12.4c-3.6,3.6-23.1,2.4-25.6,4.8s12.3,38.2,26.4,38.2s21.2,13.9,23.5,16.2
		c2.3,2.3,2.5,35.5-2.3,35.5c-4.8,0-6.3,0.6-9.4,2.2c-3.1,1.6,0.7,5.4,1.6,6.3s8.7,3.1,27.3,3.1s32.3,12,39.2,13.5
		c6.9,1.5,15.2,15.9,15.2,18.2c0,2.3,1.7,13.3,5.8,13.3c4.1,0,17.5-6.6,18.8-7.9c1.3-1.3,9.9-4.7,17.5-4.7c7.7,0,11.2,6.6,16.3,9.6
		c5,3,18.3,5.7,20.6-1.1s8.7-14.8,13.8-17.3c5-2.5,10-4,23.2,0.2c13.2,4.2,19.9,20.2,20.8,21.1c0.9,0.9,3-0.7,5-0.7
		s10.8,4.2,13.3,5.5c2.5,1.3,4.5-0.5,5.5-1.5s2.2-18,12.6-31.8c10.4-13.8,28-15.8,31-17.3c3-1.5,12-3,13.3-5.8
		c1.3-2.9-3.1-15.6-3.1-17.1c0-1.5,0.6-15.2,7.7-22.4s5.2-1.3,16.1-4.7s11.7-12,12.4-16.1c0.7-4,7.8-10.7,7.8-10.7
		s11.4-4.1,14.6-10.3c3.2-6.2,23.5-15.2,25.1-16.8C465.3,326.8,464.4,320.6,461.8,318.1z M245.1,399.9
		c-58.7,0-106.3-47.6-106.3-106.3c0-58.7,47.6-106.3,106.3-106.3s106.3,47.6,106.3,106.3C351.4,352.3,303.8,399.9,245.1,399.9z"/>
</g>
</svg>
