<?xml version="1.0" encoding="utf-8"?>
<!-- Generator: Adobe Illustrator 23.0.6, SVG Export Plug-In . SVG Version: 6.00 Build 0)  -->
<svg version="1.1" id="Capa_1" xmlns="http://www.w3.org/2000/svg" xmlns:xlink="http://www.w3.org/1999/xlink" x="0px" y="0px"
	 viewBox="0 0 207 207" style="enable-background:new 0 0 207 207;" xml:space="preserve">
<style type="text/css">
	.st0{fill:#FFFFFF;}
</style>
<path class="st0" d="M69.9,15.6L0,138.9l28.7,52.6l143.3,0l35-59.6L136.4,15.7L69.9,15.6z M17.2,139L74.3,38.2l16.9,29.6l-58,100.7
	L17.2,139z M99.8,82.9l23.8,41.6l-47.7,0L99.8,82.9z M163.4,176.4l-117.3,0l21.5-37.1l64.6,0l0.1,0.1l52.9-0.1L163.4,176.4z
	 M140.9,124.4L90.2,35.8l-3-5.2l40.8,0.1l57,93.7L140.9,124.4z"/>
</svg>
