<?xml version="1.0" encoding="utf-8"?>
<!-- Generator: Adobe Illustrator 23.0.6, SVG Export Plug-In . SVG Version: 6.00 Build 0)  -->
<svg version="1.1" id="Layer_1" xmlns="http://www.w3.org/2000/svg" xmlns:xlink="http://www.w3.org/1999/xlink" x="0px" y="0px"
	 viewBox="0 0 1911.5 1907.4" style="enable-background:new 0 0 1911.5 1907.4;" xml:space="preserve">
<style type="text/css">
	.st0{fill:#FFFFFF;}
</style>
<path class="st0" d="M1417.3,1325.1h-335v102.5h232.5l0.3,5.4c-31.3,89.2-103.1,140.7-216.4,140.7c-130.8,0-229.5-104.9-229.5-237.5
	c0-137.9,102.7-246.7,239-246.7c104.4,0,178.8,51.2,221,142.8l96.1-44.3c-59.4-128.6-172-199.4-317.1-199.4
	c-193.3,0-344.7,152.7-344.7,347.7c0,189.8,147.3,338.5,335.3,338.5c98.1,0,172.2-39.6,225.7-101.4l9.6,77.2h83.3L1417.3,1325.1
	L1417.3,1325.1z"/>
<polygon class="st0" points="1417.3,770.2 887.5,770.2 887.5,601.1 1356.3,601.1 1356.3,503 887.5,503 887.5,333.9 1417.3,333.9 
	1417.3,233.2 779.5,233.2 779.5,870.9 1417.3,870.9 "/>
<polygon class="st0" points="528.9,496.7 107.9,496.7 107.9,233.1 0,233.1 0,870.9 107.9,870.9 107.9,598.4 528.9,598.4 
	528.9,870.9 637.8,870.9 637.8,233.1 528.9,233.1 "/>
<polygon class="st0" points="372.9,1548.8 372.9,1114.3 637.8,1114.3 637.8,1012.7 0,1012.7 0,1114.3 264.9,1114.3 264.9,1548.8 
	0,1548.8 0,1650.5 637.8,1650.5 637.8,1548.8 "/>
<g>
	<g>
		<g>
			<path class="st0" d="M1684.7,232.6h41l-63.3,173.3h-39.8l-63.5-173.3h42.5l41.8,121.9L1684.7,232.6z"/>
		</g>
		<g>
			<path class="st0" d="M1761.6,405.9V232.6h62.8c52.1,0,87,33.2,87,86.8s-34.9,86.5-87.2,86.5H1761.6z M1822.8,369.5
				c26.6,0,48.4-15.4,48.4-50.1s-21.7-50.3-48.4-50.3h-22.5v100.4H1822.8z"/>
		</g>
	</g>
</g>
</svg>
