<?xml version="1.0" encoding="utf-8"?>
<!-- Generator: Adobe Illustrator 23.0.6, SVG Export Plug-In . SVG Version: 6.00 Build 0)  -->
<svg version="1.1" id="Capa_1" xmlns="http://www.w3.org/2000/svg" xmlns:xlink="http://www.w3.org/1999/xlink" x="0px" y="0px"
	 viewBox="0 0 192.1 192.1" style="enable-background:new 0 0 192.1 192.1;" xml:space="preserve">
<style type="text/css">
	.st0{fill:#FFFFFF;}
</style>
<g>
	<path class="st0" d="M143,111.8c-10.7-6.8-25.8-5.7-38.2-5.4c2-3.8,1.4-8.1-2.2-11.4c-4.6-4.3-11.4-3.2-15.9,0.5
		c-3.9,3.2-5.1,8.9-3.8,13.6c1,3.6,3.8,5.7,7.1,6.7c-2.1,1.8-3.8,4.1-3.7,7c0.1,3.5,3.3,5.8,6.3,7c6.8,2.8,14.9-1.2,14.2-8.4
		c10.8,0.9,22.1,2.2,28.3,12.4c7.8,12.8,0.1,27.6-11.3,34.5c-19.6,12-47.6,2.6-60.5-14.7c-16.6-22.1-16.5-49.8-4.1-73.7
		c11.5-22.1,31-37.4,48.9-54c1.7,4.4,4.1,9.4,8.3,12.7c4.2,3.2,10.4,0.4,12.9-3.5c4.2-6.9,0.5-15.1-5.9-17.8c2.1-1.6,3.5-3.7,3-6.6
		c-0.8-4.3-5.3-7.2-9-8.7c-4-1.7-9.2-2.7-13.2-0.3c-4.5,2.7-3.4,8.8-1.5,12.8C70.7,22.8,48.8,53.9,40.1,84c-8.1,28-6.5,63,13.8,85.4
		c15.4,17,40.1,25.1,62.7,21.9c23.8-3.4,38.4-22.3,39.8-45.6C157.2,133,154.5,119,143,111.8z M147.6,164.6
		c-11.1,24-40.9,26.8-63.3,19.4c-12.5-4.1-24.2-12.1-32.2-22.6c-10-13.3-12.5-30.8-12.6-47c-0.1-38.3,20.4-74.2,53.7-93
		c3.7-2.1,7.6-3.9,11.4-5.7c0.3-0.1,0.4-0.3,0.5-0.5c0.5-0.4,0.8-1,0.6-1.6c-0.8-2.7-2.5-7.1,0.6-9c2.5-1.5,6.3-0.4,8.7,0.5
		c2.7,1,5.7,2.7,7.1,5.3c1.7,3.3-4.5,5.4-6.4,6c-2.4,0.8-1.4,4.4,1,3.8c7.4-1.8,12.2,6.2,9,12.6c-0.7,1.4-1.9,2.2-3.4,2.6
		c-3,0.9-5.1-1.3-6.7-3.5c-1.2-1.6-2.2-3.5-3.1-5.3c-0.3-0.5-2-3.9-1.5-2.7c-0.6-1.4-2.3-1.5-3.1-0.7c-0.3-0.1-0.6-0.1-0.9,0.1
		c-24.2,15.7-47,39.9-57,67.3c-9.4,25.6-1.8,59.5,20.7,76.2c18.2,13.6,51.6,16.2,66.1-4.4c7.3-10.4,7.5-24.3-0.2-34.6
		c-7.3-9.8-21.3-10.7-32.5-11.2c-2-0.1-2.6,2.1-1.7,3.4c0.3,2.1,0.6,4.3-1.3,5.7c-1.8,1.4-4.5,1.2-6.6,0.7c-1.8-0.4-3.9-1.5-4.6-3.4
		c-1.1-3,3.6-5.8,5.6-7c1.4-0.9,0.9-3.3-0.9-3.3c-6.8,0.2-10.7-5.3-7.9-11.6c4.4-10.3,21.8-3.8,13.9,6.4c-0.5,0.6-0.4,1.3,0,1.8
		c0.3,0.7,0.9,1.2,1.8,1.2c13.6,0,31.7-2.1,42.5,8C156.3,129,153.4,151.9,147.6,164.6z"/>
</g>
</svg>
