<?xml version="1.0" encoding="utf-8"?>
<!-- Generator: Adobe Illustrator 23.0.6, SVG Export Plug-In . SVG Version: 6.00 Build 0)  -->
<svg version="1.1" id="Layer_1" xmlns="http://www.w3.org/2000/svg" xmlns:xlink="http://www.w3.org/1999/xlink" x="0px" y="0px"
	 viewBox="0 0 24 24" style="enable-background:new 0 0 24 24;" xml:space="preserve">
<style type="text/css">
	.st0{fill-rule:evenodd;clip-rule:evenodd;fill:#FFFFFF;}
</style>
<path class="st0" d="M18.8,4.6c-0.6-0.2-1.3,0.2-1.5,0.8c-0.1,0.3-0.3,0.4-0.6,0.3l-3-0.8l-1,3c1.2,0.2,3.3,0.8,4.8,1.6
	c0.4-0.2,1-0.3,1.5-0.3c0.7,0,1.5,0.3,1.9,1c0.5,0.9,0.5,1.6,0.3,2.3c-0.2,0.5-0.5,0.8-0.8,1c0.1,2.7-2.5,5.6-7.8,6
	c-1.8,0.1-4.2-0.2-6.1-1.2c-1-0.5-1.8-1.2-2.4-2.1c-0.5-0.8-0.8-1.8-0.7-3c-0.3-0.3-0.6-0.7-0.8-1.2c-0.2-0.7-0.2-1.5,0.5-2.3
	C3.7,9,5,8.9,6.1,9.5c0.4-0.3,1-0.6,1.6-0.8C8.5,8.3,9.4,8,10.4,7.9c0.3,0,0.5,0.2,0.5,0.5c0,0.3-0.2,0.5-0.5,0.5
	C9.6,9,8.8,9.2,8.1,9.5c-0.7,0.3-1.4,0.7-1.7,0.9c-0.2,0.1-0.4,0.1-0.6,0c-0.9-0.6-1.7-0.4-2-0.1c-0.4,0.5-0.4,1-0.3,1.3
	c0.1,0.4,0.5,0.7,0.7,0.9c0.2,0.1,0.2,0.3,0.2,0.5C4.3,14.1,4.6,15,5,15.7c0.5,0.7,1.2,1.3,2,1.7c1.7,0.9,3.9,1.2,5.6,1.1
	c5.2-0.4,7.1-3.3,6.9-5.2c0-0.2,0.1-0.4,0.3-0.5c0.2-0.1,0.5-0.4,0.7-0.7c0.1-0.3,0.2-0.8-0.2-1.3c-0.2-0.3-0.6-0.5-1.1-0.5
	c-0.5,0-1,0.1-1.1,0.3c-0.2,0.1-0.4,0.1-0.6,0c-1.7-1-4.3-1.6-5.3-1.7c-0.1,0-0.3-0.1-0.3-0.2c-0.1-0.1-0.1-0.3,0-0.4l1.3-4
	c0.1-0.3,0.3-0.4,0.6-0.3l3,0.8c0.5-0.9,1.5-1.3,2.5-1c1.1,0.4,1.8,1.6,1.4,2.7c-0.4,1.1-1.6,1.8-2.7,1.4c-0.5-0.2-0.9-0.5-1.2-0.9
	c-0.2-0.2-0.1-0.5,0.1-0.7C17,6,17.4,6.1,17.5,6.3c0.1,0.2,0.4,0.4,0.6,0.5C18.8,7,19.4,6.6,19.6,6C19.8,5.4,19.5,4.7,18.8,4.6z"/>
</svg>
