<?xml version="1.0" encoding="utf-8"?>
<!-- Generator: Adobe Illustrator 23.0.6, SVG Export Plug-In . SVG Version: 6.00 Build 0)  -->
<svg version="1.1" id="Calque_1" xmlns="http://www.w3.org/2000/svg" xmlns:xlink="http://www.w3.org/1999/xlink" x="0px" y="0px"
	 viewBox="0 0 24 24" style="enable-background:new 0 0 24 24;" xml:space="preserve">
<style type="text/css">
	.st0{fill-rule:evenodd;clip-rule:evenodd;fill:#FFFFFF;}
</style>
<path class="st0" d="M18.4,5.6c-1.7-1.7-4-2.6-6.3-2.6c-4.9,0-9,4-9,9c0,1.6,0.4,3.1,1.2,4.5L3,21.1l4.8-1.2C9.1,20.6,10.6,21,12,21
	h0c4.9,0,9-4,9-9C21,9.6,20.1,7.3,18.4,5.6 M12.1,19.4L12.1,19.4c-1.3,0-2.7-0.4-3.8-1L8,18.2L5.2,19l0.8-2.8l-0.2-0.3
	c-0.7-1.2-1.1-2.6-1.1-4c0-4.1,3.3-7.5,7.5-7.5c2,0,3.9,0.8,5.3,2.2c1.4,1.4,2.2,3.3,2.2,5.3C19.5,16.1,16.2,19.4,12.1,19.4
	 M16.1,13.9c-0.2-0.1-1.3-0.7-1.5-0.7c-0.2-0.1-0.4-0.1-0.5,0.1s-0.6,0.7-0.7,0.9s-0.3,0.2-0.5,0.1s-0.9-0.3-1.8-1.1
	c-0.7-0.6-1.1-1.3-1.2-1.6s0-0.3,0.1-0.5c0.1-0.1,0.2-0.3,0.3-0.4s0.1-0.2,0.2-0.4s0-0.3,0-0.4C10.4,9.8,10,8.7,9.8,8.2
	C9.6,7.8,9.4,7.8,9.3,7.8c-0.1,0-0.3,0-0.4,0c-0.2,0-0.4,0.1-0.6,0.3C8.1,8.3,7.5,8.9,7.5,10s0.8,2.2,0.9,2.3
	c0.1,0.1,1.6,2.4,3.8,3.4c0.5,0.2,1,0.4,1.3,0.5c0.5,0.2,1,0.1,1.4,0.1c0.4-0.1,1.3-0.5,1.5-1.1s0.2-1,0.1-1.1
	C16.5,14,16.4,14,16.1,13.9"/>
</svg>
