<?xml version="1.0" encoding="utf-8"?>
<!-- Generator: Adobe Illustrator 23.0.6, SVG Export Plug-In . SVG Version: 6.00 Build 0)  -->
<svg version="1.1" id="Capa_1" xmlns="http://www.w3.org/2000/svg" xmlns:xlink="http://www.w3.org/1999/xlink" x="0px" y="0px"
	 viewBox="0 0 49 49" style="enable-background:new 0 0 49 49;" xml:space="preserve">
<style type="text/css">
	.st0{fill:#FFFFFF;}
</style>
<g>
	<g>
		<path class="st0" d="M39.3,6.5H9.7C4.4,6.5,0,10.9,0,16.3v16.5c0,5.4,4.4,9.8,9.7,9.8h29.5c5.4,0,9.7-4.4,9.7-9.8V16.3
			C49,10.9,44.6,6.5,39.3,6.5z M47,32.7c0,4.3-3.5,7.8-7.7,7.8H9.7C5.5,40.5,2,37,2,32.7V16.3C2,12,5.5,8.5,9.7,8.5h29.5
			c4.3,0,7.7,3.5,7.7,7.8V32.7z"/>
		<path class="st0" d="M33.4,24.1L19.5,16c-0.3-0.2-0.7-0.2-1,0c-0.3,0.2-0.5,0.5-0.5,0.9v16.2c0,0.4,0.2,0.7,0.5,0.9
			c0.2,0.1,0.3,0.1,0.5,0.1c0.2,0,0.3,0,0.5-0.1l13.9-8.1c0.3-0.2,0.5-0.5,0.5-0.9S33.7,24.3,33.4,24.1z M20,31.4V18.6L30.9,25
			L20,31.4z"/>
	</g>
</g>
</svg>
